<?xml version="1.0" encoding="UTF-8"?>
<svg width="14px" height="14px" viewBox="0 0 14 14" version="1.1" xmlns="http://www.w3.org/2000/svg" xmlns:xlink="http://www.w3.org/1999/xlink">
    <!-- Generator: Sketch 52.2 (67145) - http://www.bohemiancoding.com/sketch -->
    <title>iconmonstr-instagram-11</title>
    <desc>Created with Sketch.</desc>
    <g id="Symbols" stroke="none" stroke-width="1" fill="none" fill-rule="evenodd">
        <g id="RRSS" transform="translate(-216.000000, -20.000000)" fill="#1FA3EA" fill-rule="nonzero">
            <g id="iconmonstr-instagram-11" transform="translate(216.000000, 20.000000)">
                <path d="M7,1.26175 C8.869,1.26175 9.09066667,1.26875 9.82916667,1.30258333 C11.7261667,1.38891667 12.61225,2.289 12.6985833,4.172 C12.7324167,4.90991667 12.7388333,5.13158333 12.7388333,7.00058333 C12.7388333,8.87016667 12.7318333,9.09125 12.6985833,9.82916667 C12.6116667,11.7104167 11.7279167,12.61225 9.82916667,12.6985833 C9.09066667,12.7324167 8.87016667,12.7394167 7,12.7394167 C5.131,12.7394167 4.90933333,12.7324167 4.17141667,12.6985833 C2.26975,12.6116667 1.38833333,11.7075 1.302,9.82858333 C1.26816667,9.09066667 1.26116667,8.86958333 1.26116667,7 C1.26116667,5.131 1.26875,4.90991667 1.302,4.17141667 C1.38891667,2.289 2.27266667,1.38833333 4.17141667,1.302 C4.90991667,1.26875 5.131,1.26175 7,1.26175 Z M7,-2.02384406e-16 C5.09891667,-2.02384406e-16 4.86091667,0.00816666667 4.11425,0.042 C1.57208333,0.158666667 0.15925,1.56916667 0.0425833333,4.11366667 C0.00816666667,4.86091667 -4.85722573e-16,5.09891667 -4.85722573e-16,7 C-4.85722573e-16,8.90108333 0.00816666667,9.13966667 0.042,9.88633333 C0.158666667,12.4285 1.56916667,13.8413333 4.11366667,13.958 C4.86091667,13.9918333 5.09891667,14 7,14 C8.90108333,14 9.13966667,13.9918333 9.88633333,13.958 C12.4261667,13.8413333 13.8425,12.4308333 13.9574167,9.88633333 C13.9918333,9.13966667 14,8.90108333 14,7 C14,5.09891667 13.9918333,4.86091667 13.958,4.11425 C13.8436667,1.57441667 12.4314167,0.15925 9.88691667,0.0425833333 C9.13966667,0.00816666667 8.90108333,-4.85722573e-16 7,-2.02384406e-16 Z M7,3.4055 C5.01491667,3.4055 3.4055,5.01491667 3.4055,7 C3.4055,8.98508333 5.01491667,10.5950833 7,10.5950833 C8.98508333,10.5950833 10.5945,8.98566667 10.5945,7 C10.5945,5.01491667 8.98508333,3.4055 7,3.4055 Z M7,9.33333333 C5.71141667,9.33333333 4.66666667,8.28916667 4.66666667,7 C4.66666667,5.71141667 5.71141667,4.66666667 7,4.66666667 C8.28858333,4.66666667 9.33333333,5.71141667 9.33333333,7 C9.33333333,8.28916667 8.28858333,9.33333333 7,9.33333333 Z M11.2972222,2.42375 C10.5233333,2.42375 9.89625,3.05083333 9.89625,3.82375 C9.89625,4.59666667 10.5233333,5.22375 11.2972222,5.22375 C12.0701389,5.22375 12.69625,4.59666667 12.69625,3.82375 C12.69625,3.05083333 12.0701389,2.42375 11.2972222,2.42375 Z" id="Shape"></path>
            </g>
        </g>
    </g>
</svg>