<?xml version="1.0" encoding="UTF-8"?>
<svg width="12px" height="14px" viewBox="0 0 12 14" version="1.1" xmlns="http://www.w3.org/2000/svg" xmlns:xlink="http://www.w3.org/1999/xlink">
    <!-- Generator: Sketch 52.2 (67145) - http://www.bohemiancoding.com/sketch -->
    <title>Icons/Social Media/Pinterest/Custom Copy</title>
    <desc>Created with Sketch.</desc>
    <g id="Symbols" stroke="none" stroke-width="1" fill="none" fill-rule="evenodd">
        <g id="RRSS" transform="translate(-243.000000, -20.000000)" fill="#1FA3EA">
            <g id="Icons/Social-Media/Pinterest/Light" transform="translate(242.000000, 20.000000)">
                <path d="M7.31738048,0 C3.3842323,0 1.4,2.7279123 1.4,5.0038357 C1.4,5.42702189 1.45119352,5.83087056 1.55388589,6.20591652 C1.78776801,7.05859903 2.29115398,7.7477269 3.09579804,8.06516742 C3.28479677,8.14200859 3.45466155,8.06842427 3.50921369,7.86639815 C3.54758339,7.72543787 3.63745193,7.36952587 3.67907847,7.22215367 C3.73373238,7.02022933 3.71439487,6.94959653 3.56040721,6.77657668 C3.35858465,6.54574785 3.20459699,6.27644755 3.10862186,5.94638675 C3.04755603,5.72827997 3.01234141,5.4847291 3.01234141,5.20586182 C3.01234141,3.1799012 4.5799012,1.36553368 7.08970672,1.36553368 C9.31117976,1.36553368 10.5357532,2.67987385 10.5357532,4.43643239 C10.5357532,4.95254041 10.4813028,5.45266954 10.3820708,5.91748226 C10.035624,7.52341175 9.12859294,8.69668986 7.91053323,8.69668986 C7.04492512,8.69668986 6.39416695,8.00420337 6.60250319,7.15477771 C6.72107268,6.67072925 6.89429608,6.16744505 7.0385132,5.69622041 C7.20196607,5.1770591 7.33346115,4.69290886 7.33346115,4.31145099 C7.33346115,3.65438269 6.97113724,3.10937017 6.21799203,3.10937017 C5.32999312,3.10937017 4.61837267,3.99411224 4.61837267,5.18021417 C4.61837267,5.40452931 4.6441221,5.60655542 4.67607988,5.77957527 C4.75292105,6.19634954 4.88431435,6.44956917 4.88431435,6.44956917 C4.88431435,6.44956917 3.97728326,10.1647124 3.82024231,10.8154705 C3.50280178,12.11373 3.7720003,13.7007291 3.79459466,13.8608234 C3.80741848,13.9571038 3.93555494,13.9793928 3.99326215,13.905605 C4.07325839,13.8031162 5.12796701,12.5432263 5.48713585,11.2867969 C5.58962467,10.9276281 6.06736299,9.08140457 6.06736299,9.08140457 C6.35579725,9.61338971 7.198811,10.0814593 8.08996498,10.0814593 C10.2601427,10.0814593 11.8595585,8.52346646 12.3790252,6.24764484 C12.4975947,5.72827997 12.5584569,5.17370048 12.5584569,4.59031827 C12.5584569,2.21180428 10.478046,0 7.31738048,0" id="pinterest"></path>
            </g>
        </g>
    </g>
</svg>