<?xml version="1.0" encoding="UTF-8"?>
<svg width="12px" height="10px" viewBox="0 0 12 10" version="1.1" xmlns="http://www.w3.org/2000/svg" xmlns:xlink="http://www.w3.org/1999/xlink">
    <!-- Generator: Sketch 52.2 (67145) - http://www.bohemiancoding.com/sketch -->
    <title>Icons/Social Media/Twitter/Custom Copy</title>
    <desc>Created with Sketch.</desc>
    <defs>
        <path d="M13.0666667,3.25986063 C12.6205362,3.45695471 12.1410344,3.5892446 11.6393146,3.64841752 C12.1521877,3.34441891 12.54804,2.85735967 12.7320688,2.28028968 C12.2524785,2.56471296 11.720043,2.77011985 11.1513151,2.87988471 C10.6996965,2.40131706 10.0528073,2.1 9.33634294,2.1 C7.96192463,2.1 6.84659838,3.20926868 6.84659838,4.57462559 C6.84659838,4.76903811 6.86890491,4.95755121 6.91086242,5.13775151 C4.84219777,5.03361791 3.00757461,4.04814754 1.78089277,2.55345045 C1.56632524,2.91653259 1.44355083,3.34441891 1.44355083,3.7976012 C1.44355083,4.65364199 1.8841047,5.41082289 2.55037936,5.85569237 C2.1433738,5.84156953 1.75858624,5.73171528 1.42398837,5.54588373 L1.42398837,5.57690034 C1.42398837,5.8950218 1.48541983,6.19633886 1.59411988,6.4750415 C1.89809054,7.24920557 2.58118361,7.83485653 3.42024532,8.00352615 C3.21125443,8.06001751 2.99093323,8.09085536 2.76512393,8.09085536 C2.60349014,8.09085536 2.44725594,8.07396158 2.2966869,8.04589467 C2.61163379,9.02832595 3.53186646,9.74358525 4.62187658,9.76316058 C3.76874052,10.4275598 2.69546029,10.8246083 1.53003288,10.8246083 C1.32661861,10.8246083 1.13143652,10.8133457 0.933333333,10.7879604 C2.0374178,11.4919572 3.34500506,11.9 4.7501391,11.9 C8.64218513,11.9 11.0342059,9.17777778 11.6642767,6.35401412 C11.7758978,5.85569237 11.8343197,5.35164998 11.8343197,4.86190919 C11.8343197,4.75491527 11.8315756,4.64774257 11.825999,4.54092742 C12.31391,4.19178934 12.7349014,3.75550083 13.0666667,3.25986063" id="path-1"></path>
    </defs>
    <g id="Symbols" stroke="none" stroke-width="1" fill="none" fill-rule="evenodd">
        <g id="RRSS" transform="translate(-160.000000, -22.000000)">
            <g id="Icons/Social-Media/Twitter/Light" transform="translate(159.000000, 20.000000)">
                <mask id="mask-2" fill="white">
                    <use xlink:href="#path-1"></use>
                </mask>
                <use id="twitter" fill="#1FA3EA" fill-rule="evenodd" xlink:href="#path-1"></use>
            </g>
        </g>
    </g>
</svg>