<?xml version="1.0" encoding="UTF-8"?>
<svg width="14px" height="12px" viewBox="0 0 14 12" version="1.1" xmlns="http://www.w3.org/2000/svg" xmlns:xlink="http://www.w3.org/1999/xlink">
    <!-- Generator: Sketch 52.2 (67145) - http://www.bohemiancoding.com/sketch -->
    <title>Icons/Social Media/YouTube/Custom Copy</title>
    <desc>Created with Sketch.</desc>
    <g id="Symbols" stroke="none" stroke-width="1" fill="none" fill-rule="evenodd">
        <g id="RRSS" transform="translate(-187.000000, -21.000000)" fill="#1FA3EA">
            <g id="Icons/Social-Media/YouTube/Light" transform="translate(187.000000, 20.000000)">
                <path d="M13.8585394,4.07988619 C13.8585394,4.07988619 13.7234114,3.07618005 13.3051579,2.63229007 C12.7711826,2.05000365 12.1760268,2.04683738 11.9026045,2.0145619 C9.94350332,1.86666667 7.0032684,1.86666667 7.0032684,1.86666667 L6.99683373,1.86666667 C6.99683373,1.86666667 4.05976508,1.86666667 2.10056176,2.0145619 C1.82724156,2.04683738 1.2320858,2.05000365 0.698008317,2.63229007 C0.279857007,3.07618005 0.141562705,4.08315459 0.141562705,4.08315459 C0.141562705,4.08315459 0,5.2636609 0,6.44437149 L0,7.55082804 C0,8.73164077 0.141562705,9.91551762 0.141562705,9.91551762 C0.141562705,9.91551762 0.279857007,10.9191216 0.698008317,11.3631137 C1.2320858,11.9454002 1.93019625,11.9260962 2.24212446,11.9870723 C3.36165463,12.0964617 7,12.1318013 7,12.1318013 C7,12.1318013 9.94350332,12.1287371 11.9026045,11.9806376 C12.1760268,11.9454002 12.7711826,11.9454002 13.3051579,11.3631137 C13.7234114,10.9191216 13.8585394,9.91551762 13.8585394,9.91551762 C13.8585394,9.91551762 14,8.73164077 14,7.55082804 L14,6.44437149 C14,5.2636609 13.8585394,4.07988619 13.8585394,4.07988619 L13.8585394,4.07988619 Z M9.33547822,6.84965346 L5.55557015,8.8923032 L5.55557015,4.79403225 L7.260553,5.72052236 L9.33547822,6.84965346 L9.33547822,6.84965346 Z" id="youtube"></path>
            </g>
        </g>
    </g>
</svg>