<?xml version="1.0" encoding="UTF-8"?>
<svg width="22px" height="16px" viewBox="0 0 22 16" version="1.1" xmlns="http://www.w3.org/2000/svg" xmlns:xlink="http://www.w3.org/1999/xlink">
    <!-- Generator: Sketch 52.2 (67145) - http://www.bohemiancoding.com/sketch -->
    <title>ES</title>
    <desc>Created with Sketch.</desc>
    <defs>
        <rect id="path-1" x="0" y="0" width="22" height="16" rx="2"></rect>
    </defs>
    <g id="Page-1" stroke="none" stroke-width="1" fill="none" fill-rule="evenodd">
        <g id="Idioma" transform="translate(-15.000000, -364.000000)">
            <g id="01_secciones" transform="translate(0.000000, 120.000000)">
                <g id="banderas" transform="translate(15.000000, 244.000000)">
                    <g id="ES">
                        <mask id="mask-2" fill="white">
                            <use xlink:href="#path-1"></use>
                        </mask>
                        <use id="Mask" fill="#FFFFFF" xlink:href="#path-1"></use>
                        <rect id="Rectangle-2" fill="#DD172C" mask="url(#mask-2)" x="0" y="0" width="22" height="4.26666667"></rect>
                        <rect id="Rectangle-2" fill="#DD172C" mask="url(#mask-2)" x="0" y="11.7333333" width="22" height="4.26666667"></rect>
                        <polygon id="Rectangle-2" fill="#FFD133" mask="url(#mask-2)" points="0 11.7333333 22 11.7333333 22 4.26666667 0 4.26666667"></polygon>
                        <polygon id="Rectangle-139-Copy" fill="#FFEDB1" mask="url(#mask-2)" points="5.76190476 7.46666667 6.80952381 7.46666667 6.80952381 8 5.76190476 8"></polygon>
                        <path d="M5.76004445,9.77490823 C5.68920929,9.79131012 5.61629706,9.8 5.54237929,9.8 L5.54237929,10.4666667 L5.98143024,10.4666667 L5.98143024,9.8 C5.90598772,9.8 5.83184769,9.79132389 5.76004445,9.77490823 Z" id="Rectangle-137" stroke="#A41517" stroke-width="0.666666667" mask="url(#mask-2)"></path>
                        <polygon id="Rectangle-139" fill="#A41517" mask="url(#mask-2)" points="4.71428571 8 6.80952381 8 6.80952381 8.53333333 6.28571429 8.53333333 5.76190476 9.6 5.23809524 8.53333333 4.71428571 8.53333333"></polygon>
                        <path d="M3.14285714,6.919104 C3.14285714,6.63241078 3.38583519,6.4 3.66666667,6.4 L3.66666667,6.4 C3.95595868,6.4 4.19047619,6.63353672 4.19047619,6.919104 L4.19047619,9.61422933 C4.19047619,9.90092255 3.94749814,10.1333333 3.66666667,10.1333333 L3.66666667,10.1333333 C3.37737465,10.1333333 3.14285714,9.89979661 3.14285714,9.61422933 L3.14285714,6.919104 Z" id="Rectangle-135" fill="#A41517" mask="url(#mask-2)"></path>
                        <path d="M7.33333333,6.919104 C7.33333333,6.63241078 7.57631138,6.4 7.85714286,6.4 L7.85714286,6.4 C8.14643487,6.4 8.38095238,6.63353672 8.38095238,6.919104 L8.38095238,9.61422933 C8.38095238,9.90092255 8.13797433,10.1333333 7.85714286,10.1333333 L7.85714286,10.1333333 C7.56785085,10.1333333 7.33333333,9.89979661 7.33333333,9.61422933 L7.33333333,6.919104 Z" id="Rectangle-135-Copy" fill="#A41517" mask="url(#mask-2)"></path>
                        <path d="M4.71428571,5.86666667 C4.71428571,5.5721148 4.95463617,5.33333333 5.24300276,5.33333333 L6.28080677,5.33333333 C6.57280913,5.33333333 6.80952381,5.58072917 6.80952381,5.86666667 L6.80952381,6.0625 C6.80952381,6.2488961 6.65883945,6.4 6.48214286,6.4 L5.04166667,6.4 C4.86085916,6.4 4.71428571,6.25168457 4.71428571,6.0625 L4.71428571,5.86666667 Z" id="Rectangle-138" fill="#A41517" mask="url(#mask-2)"></path>
                    </g>
                </g>
            </g>
        </g>
    </g>
</svg>