<?xml version="1.0" encoding="UTF-8"?>
<svg width="18px" height="12px" viewBox="0 0 18 12" version="1.1" xmlns="http://www.w3.org/2000/svg" xmlns:xlink="http://www.w3.org/1999/xlink">
    <!-- Generator: Sketch 52.2 (67145) - http://www.bohemiancoding.com/sketch -->
    <title>top</title>
    <desc>Created with Sketch.</desc>
    <g id="Page-1" stroke="none" stroke-width="1" fill="none" fill-rule="evenodd">
        <g id="Menu-2do-nivel" transform="translate(-8.000000, -19.000000)" fill="#273D52" fill-rule="nonzero">
            <g id="top" transform="translate(8.000000, 19.000000)">
                <g id="np_arrow_685135_000000">
                    <path d="M0.240740741,6.61995 L4.98148148,11.71995 C5.30322963,12.011748 5.91899259,12.13245 6.27777778,11.79495 C6.63194074,11.46213 6.62035556,10.81644 6.26851852,10.48245 L2.93518519,6.90105 L17.1111852,6.90105 C17.6019111,6.90105 18.0000741,6.49791 18.0000741,6.00105 C18.0000741,5.50419 17.6019111,5.10105 17.1111852,5.10105 L2.93518519,5.10105 L6.26851852,1.51965 C6.57174815,1.21146 6.62845926,0.54348 6.27777778,0.20715 C5.92823704,-0.12918 5.28936296,-0.021366 4.98148148,0.28215 L0.240740741,5.38215 C0.0787022222,5.556759 7.10542736e-15,5.76183 7.10542736e-15,6.0009 C0.00810192593,6.215652 0.0960651852,6.4641 0.240740741,6.61995 Z" id="Shape"></path>
                </g>
            </g>
        </g>
    </g>
</svg>