<?xml version="1.0" encoding="UTF-8"?>
<svg width="20px" height="21px" viewBox="0 0 20 21" version="1.1" xmlns="http://www.w3.org/2000/svg" xmlns:xlink="http://www.w3.org/1999/xlink">
    <!-- Generator: Sketch 52.2 (67145) - http://www.bohemiancoding.com/sketch -->
    <title>Group 3</title>
    <desc>Created with Sketch.</desc>
    <defs>
        <polygon id="path-1" points="0 0 20 0 20 21 0 21"></polygon>
    </defs>
    <g id="Symbols" stroke="none" stroke-width="1" fill="none" fill-rule="evenodd">
        <g id="header" transform="translate(-287.000000, -13.000000)">
            <g id="Group-3" transform="translate(287.000000, 13.000000)">
                <mask id="mask-2" fill="white">
                    <use xlink:href="#path-1"></use>
                </mask>
                <g id="Clip-2"></g>
                <path d="M12.7826265,8.95357255 C12.3689152,8.95357255 12.0334316,8.61927275 12.0334316,8.20702137 C12.0334316,7.79476999 12.3689152,7.46047018 12.7826265,7.46047018 C13.1965323,7.46047018 13.5320159,7.79476999 13.5320159,8.20702137 C13.5320159,8.61927275 13.1965323,8.95357255 12.7826265,8.95357255 M9.95981591,13.5395298 C8.9858626,13.5395298 7.68012298,13.0014312 7.68012298,11.9184472 C7.68012298,11.3770522 8.82006675,11.4065264 9.95981591,11.4065264 C11.0997597,11.4065264 12.2395088,11.3770522 12.2395088,11.9184472 C12.2395088,13.0014312 10.8695525,13.5395298 9.95981591,13.5395298 M6.54504412,8.20702137 C6.54504412,7.79476999 6.88052774,7.46047018 7.29423898,7.46047018 C7.70814482,7.46047018 8.04343384,7.79476999 8.04343384,8.20702137 C8.04343384,8.61927275 7.70814482,8.95357255 7.29423898,8.95357255 C6.88052774,8.95357255 6.54504412,8.61927275 6.54504412,8.20702137 M9.9999027,0 C4.47707172,0 0,4.46127352 0,9.96461615 C0,13.5255683 1.87571149,16.6480914 4.69482472,18.41034 C4.69832745,18.4130547 4.7008572,18.4163512 4.70416533,18.4190659 C6.07412164,19.4029622 3.17444564,21 5.37182444,21 C9.1785127,21 12.3443961,20.1324494 14.7424035,18.7390164 C15.6521401,18.249783 16.4756706,17.6228739 17.1882814,16.8881512 C18.765288,15.3308648 19.6929274,13.46216 19.8785721,11.5158913 C19.9579672,11.0103695 20,10.4924375 20,9.96461615 C20,4.46127352 15.5227337,0 9.9999027,0" id="Fill-1" fill="#1C91D0" mask="url(#mask-2)"></path>
            </g>
        </g>
    </g>
</svg>