<?xml version="1.0" encoding="UTF-8"?>
<svg width="14px" height="14px" viewBox="0 0 14 14" version="1.1" xmlns="http://www.w3.org/2000/svg" xmlns:xlink="http://www.w3.org/1999/xlink">
    <!-- Generator: Sketch 52.2 (67145) - http://www.bohemiancoding.com/sketch -->
    <title>Artboard</title>
    <desc>Created with Sketch.</desc>
    <g id="Artboard" stroke="none" stroke-width="1" fill="none" fill-rule="evenodd">
        <g id="search-menu" fill="#000000" fill-rule="nonzero">
            <path d="M13.7871392,12.7517818 L10.3358997,9.28631116 C11.223274,8.26787911 11.7094716,6.98648318 11.7094716,5.65249448 C11.7094716,2.53575818 9.08298623,0 5.85473582,0 C2.6264854,0 0,2.53575818 0,5.65249448 C0,8.76923079 2.6264854,11.304989 5.85473582,11.304989 C7.06666613,11.304989 8.22157641,10.9520767 9.20899036,10.2821332 L12.6864488,13.7739002 C12.831799,13.9196363 13.0272963,14 13.236794,14 C13.4350913,14 13.6232066,13.9270091 13.7660112,13.7942984 C14.0694392,13.512411 14.0791123,13.0449742 13.7871392,12.7517818 Z M5.85473582,1.47456378 C8.24092249,1.47456378 10.1821493,3.34873435 10.1821493,5.65249448 C10.1821493,7.95625463 8.24092249,9.83042521 5.85473582,9.83042521 C3.46854914,9.83042521 1.52732239,7.95625463 1.52732239,5.65249448 C1.52732239,3.34873435 3.46854914,1.47456378 5.85473582,1.47456378 Z" id="Shapesearch"></path>
        </g>
    </g>
</svg>